# xmcd CD database file
#
# Track frame offsets:
#	150
#	16993
#	35288
#	62509
#	79558
#	116625
#	138278
#	159242
#	183832
#	207436
#	234784
#	257442
#
# Disc length: 3531 seconds
#
# Revision: 2
# Processed by: cddbd v1.4PL0 Copyright (c) Steve Scherf et al.
# Submitted via: CDex 1.40Beta9
#
DISCID=870dc90c
DTITLE=Willie "Big Eyes" Smith - "Nothin' But The Blues Y'All"
DYEAR=1999
DGENRE=Blues
TTITLE0=That's The Way To Do It
TTITLE1=Mystery Train
TTITLE2=I Can't Trust You Man
TTITLE3=Pretty Baby
TTITLE4=Blues And Trouble
TTITLE5=Sittin' Here Drinkin'
TTITLE6=Honey Bee
TTITLE7=Rock This House
TTITLE8=Mannish Boy
TTITLE9=Caledonia
TTITLE10=Mellow Down Easy
TTITLE11=Miss Maisy
EXTD=YEAR: 1999 ID3G: 0
EXTT0=
EXTT1=
EXTT2=
EXTT3=
EXTT4=
EXTT5=
EXTT6=
EXTT7=
EXTT8=
EXTT9=
EXTT10=
EXTT11=
PLAYORDER=
